<?xml version="1.0" standalone="no"?>
<!DOCTYPE svg PUBLIC "-//W3C//DTD SVG 20010904//EN"
 "http://www.w3.org/TR/2001/REC-SVG-20010904/DTD/svg10.dtd">
<svg version="1.0" xmlns="http://www.w3.org/2000/svg"
 width="2440.000000pt" height="2440.000000pt" viewBox="0 0 2440.000000 2440.000000"
 preserveAspectRatio="xMidYMid meet">
<metadata>
Created by potrace 1.14, written by Peter Selinger 2001-2017
</metadata>
<g transform="translate(0.000000,2440.000000) scale(0.100000,-0.100000)"
fill="#000000" stroke="none">
<path d="M2298 21293 c-20 -3 -28 -10 -28 -24 0 -14 -7 -19 -25 -19 -20 0 -25
-5 -25 -25 0 -20 -5 -25 -25 -25 -20 0 -25 -5 -25 -25 0 -20 -5 -25 -25 -25
-21 0 -25 -5 -25 -30 0 -23 -5 -30 -19 -30 -24 0 -31 -35 -31 -146 0 -82 1
-84 24 -84 21 0 24 -6 30 -50 5 -41 10 -50 26 -50 15 0 20 -7 20 -25 0 -20 5
-25 25 -25 20 0 25 -5 25 -24 0 -23 5 -25 48 -28 40 -3 47 -6 50 -25 3 -19 10
-23 41 -23 67 0 101 -11 101 -31 0 -16 8 -19 55 -19 52 0 55 -1 55 -25 0 -24
2 -25 70 -25 68 0 70 -1 70 -25 0 -24 2 -25 75 -25 73 0 75 -1 75 -25 0 -24 2
-25 70 -25 68 0 70 -1 70 -25 0 -23 3 -25 50 -25 43 0 50 -3 50 -19 0 -16 10
-21 55 -26 43 -6 55 -11 55 -25 0 -18 41 -30 108 -30 25 0 32 -4 32 -19 0 -15
10 -20 50 -26 39 -5 50 -11 50 -25 0 -14 11 -20 50 -25 40 -5 50 -11 50 -25 0
-15 9 -19 48 -22 40 -3 47 -6 50 -25 3 -20 9 -23 48 -23 40 0 44 -2 44 -25 0
-23 3 -25 50 -25 47 0 50 -2 50 -25 0 -23 3 -25 50 -25 47 0 50 -2 50 -25 0
-23 3 -25 50 -25 47 0 50 -2 50 -25 0 -23 4 -25 45 -25 41 0 45 -2 45 -25 0
-21 5 -25 30 -25 23 0 30 -5 30 -19 0 -16 9 -21 44 -26 36 -6 46 -12 48 -29 2
-17 11 -21 50 -24 39 -3 47 -6 50 -25 2 -14 11 -23 26 -25 14 -2 22 -10 22
-22 0 -14 11 -20 50 -25 40 -6 50 -11 50 -26 0 -14 7 -19 25 -19 20 0 25 -5
25 -24 0 -23 5 -25 48 -28 39 -3 47 -6 50 -24 2 -17 12 -23 48 -29 35 -5 44
-10 44 -26 0 -14 7 -19 25 -19 20 0 25 -5 25 -25 0 -21 5 -25 30 -25 25 0 30
-4 30 -25 0 -23 4 -25 45 -25 41 0 45 -2 45 -25 0 -20 5 -25 25 -25 20 0 25
-5 25 -25 0 -23 3 -25 50 -25 47 0 50 -2 50 -25 0 -20 5 -25 25 -25 20 0 25
-5 25 -25 0 -20 5 -25 25 -25 18 0 25 -5 25 -19 0 -15 10 -20 44 -25 36 -6 45
-11 48 -29 2 -14 11 -23 25 -25 14 -2 23 -11 25 -25 2 -16 11 -23 31 -25 19
-2 27 -9 27 -22 0 -12 8 -20 23 -22 14 -2 23 -11 25 -25 3 -17 10 -23 28 -23
19 0 24 -5 24 -24 0 -20 6 -25 45 -30 36 -6 45 -11 45 -27 0 -14 7 -19 25 -19
20 0 25 -5 25 -25 0 -20 5 -25 25 -25 20 0 25 -5 25 -25 0 -20 5 -25 25 -25
20 0 25 -5 25 -25 0 -20 5 -25 25 -25 20 0 25 -5 25 -25 0 -20 5 -25 25 -25
18 0 25 -5 25 -19 0 -13 8 -21 23 -23 14 -2 23 -11 25 -25 3 -17 10 -23 28
-23 19 0 24 -5 24 -24 0 -22 6 -26 44 -31 36 -6 46 -12 48 -29 2 -13 11 -22
25 -24 14 -2 23 -11 25 -25 2 -14 11 -23 25 -25 14 -2 23 -11 25 -25 2 -14 11
-23 25 -25 14 -2 23 -11 25 -25 2 -14 11 -23 26 -25 14 -2 22 -10 22 -23 0
-14 7 -19 25 -19 21 0 25 -5 25 -30 0 -23 5 -30 19 -30 15 0 21 -10 26 -39 5
-31 12 -41 28 -43 14 -2 23 -11 25 -25 2 -14 11 -23 25 -25 14 -2 23 -11 25
-25 2 -14 11 -23 25 -25 14 -2 23 -11 25 -25 2 -14 11 -23 25 -25 14 -2 23
-11 25 -25 2 -14 11 -23 25 -25 14 -2 23 -11 25 -25 2 -15 10 -23 23 -23 14 0
19 -7 19 -25 0 -20 5 -25 24 -25 19 0 25 -6 28 -27 2 -20 9 -29 25 -31 18 -3
23 -12 29 -48 5 -34 10 -44 25 -44 14 0 19 -7 19 -25 0 -20 5 -25 25 -25 20 0
25 -5 25 -25 0 -20 5 -25 25 -25 20 0 25 -5 25 -25 0 -20 5 -25 25 -25 20 0
25 -5 25 -25 0 -18 5 -25 19 -25 16 0 21 -9 27 -45 5 -39 10 -45 30 -45 20 0
24 -5 24 -30 0 -25 4 -30 25 -30 20 0 25 -5 25 -25 0 -18 5 -25 19 -25 16 0
21 -9 26 -44 6 -36 12 -46 29 -48 13 -2 22 -11 24 -25 2 -15 10 -23 22 -23 14
0 20 -11 25 -49 5 -41 11 -50 28 -53 14 -2 23 -11 25 -25 2 -15 10 -23 23 -23
14 0 19 -7 19 -25 0 -20 5 -25 24 -25 23 0 25 -5 28 -47 3 -41 6 -48 26 -51
16 -3 22 -10 22 -28 0 -19 5 -24 25 -24 23 0 25 -4 25 -44 0 -39 3 -45 23 -48
19 -3 22 -10 25 -50 3 -43 5 -48 28 -48 19 0 24 -5 24 -24 0 -18 6 -25 23 -28
19 -3 22 -10 25 -50 3 -43 5 -48 28 -48 19 0 24 -5 24 -25 0 -18 5 -25 19 -25
15 0 20 -10 26 -50 5 -39 11 -50 25 -50 13 0 19 -11 24 -45 6 -35 11 -45 26
-45 14 0 20 -11 25 -50 5 -39 11 -50 25 -50 13 0 20 -9 22 -27 2 -20 9 -29 25
-31 19 -3 22 -11 25 -50 3 -40 6 -47 26 -50 19 -3 22 -9 22 -48 0 -40 2 -44
25 -44 23 0 25 -3 25 -50 0 -47 2 -50 25 -50 23 0 25 -3 25 -50 0 -47 2 -50
25 -50 20 0 25 -5 25 -25 0 -18 5 -25 19 -25 16 0 21 -9 26 -44 7 -43 8 -44
51 -51 34 -5 44 -11 44 -24 0 -15 11 -20 55 -26 44 -5 55 -10 55 -25 0 -15 13
-19 95 -25 84 -6 95 -9 95 -26 0 -14 7 -19 25 -19 18 0 25 5 25 19 0 20 39 31
113 31 33 0 37 3 37 25 0 20 5 25 25 25 20 0 25 5 25 25 0 18 5 25 19 25 16 0
21 9 27 45 5 35 10 45 25 45 16 0 19 8 19 50 0 43 -3 50 -20 50 -15 0 -20 7
-20 25 0 20 -5 25 -24 25 -23 0 -25 5 -28 48 -3 40 -6 47 -25 50 -17 3 -23 10
-23 28 0 19 -5 24 -24 24 -23 0 -25 5 -28 48 -3 40 -6 47 -25 50 -20 3 -23 9
-23 47 0 38 -3 44 -22 47 -20 3 -23 10 -26 50 -3 39 -6 47 -25 50 -19 3 -22
10 -25 50 -3 39 -6 47 -25 50 -19 3 -22 10 -25 51 -3 39 -7 47 -22 47 -16 0
-21 10 -26 50 -6 44 -9 50 -30 50 -22 0 -24 4 -24 45 0 38 -3 45 -19 45 -15 0
-20 10 -26 50 -5 39 -11 50 -25 50 -13 0 -20 9 -22 28 -2 19 -9 28 -24 30 -17
2 -23 12 -29 48 -5 33 -11 44 -24 44 -14 0 -20 11 -25 50 -5 40 -11 50 -25 50
-14 0 -20 10 -25 45 -6 36 -11 45 -27 45 -14 0 -19 7 -19 30 0 25 -4 30 -25
30 -23 0 -25 3 -25 50 0 47 -2 50 -25 50 -20 0 -25 5 -25 25 0 18 -5 25 -19
25 -16 0 -21 9 -26 44 -6 36 -12 46 -29 48 -18 3 -21 11 -24 51 -3 42 -5 47
-28 47 -19 0 -24 5 -24 25 0 18 -5 25 -19 25 -15 0 -20 10 -26 50 -6 44 -10
50 -31 50 -19 0 -24 5 -24 25 0 18 -5 25 -19 25 -15 0 -20 10 -25 45 -6 35
-11 45 -26 45 -13 0 -20 8 -22 28 -2 19 -9 28 -25 30 -17 3 -23 10 -23 28 0
19 -5 24 -25 24 -23 0 -25 4 -25 45 0 41 -2 45 -25 45 -20 0 -25 5 -25 25 0
20 -5 25 -25 25 -21 0 -25 5 -25 30 0 23 -5 30 -19 30 -16 0 -21 9 -27 45 -5
39 -10 45 -30 45 -19 0 -24 5 -24 25 0 20 -5 25 -25 25 -20 0 -25 5 -25 25 0
18 -5 25 -20 25 -15 0 -20 7 -20 25 0 20 -5 25 -24 25 -20 0 -25 6 -30 44 -6
36 -11 45 -29 48 -16 2 -23 11 -25 31 -2 19 -9 27 -22 27 -12 0 -20 8 -22 23
-2 14 -11 23 -25 25 -14 2 -23 11 -25 25 -2 14 -11 23 -25 25 -14 2 -23 11
-25 25 -2 14 -11 23 -25 25 -17 3 -23 10 -23 28 0 19 -5 24 -24 24 -20 0 -25
6 -30 45 -6 36 -11 45 -27 45 -14 0 -19 7 -19 25 0 20 -5 25 -25 25 -20 0 -25
5 -25 25 0 20 -5 25 -25 25 -20 0 -25 5 -25 25 0 20 -5 25 -25 25 -20 0 -25 5
-25 25 0 20 -5 25 -25 25 -18 0 -25 5 -25 19 0 13 -8 21 -22 23 -15 2 -24 11
-26 25 -2 14 -11 23 -25 25 -14 2 -23 11 -25 25 -2 14 -11 23 -25 25 -14 2
-23 11 -25 25 -2 14 -11 23 -25 25 -14 2 -23 11 -25 25 -2 14 -11 23 -25 25
-14 2 -23 11 -25 25 -2 14 -11 23 -25 25 -14 2 -23 11 -25 25 -2 14 -11 23
-25 25 -14 2 -23 11 -25 26 -2 14 -10 22 -23 22 -14 0 -19 7 -19 25 0 23 3 25
50 25 47 0 50 -1 50 -27 l0 -26 3195 6 3195 5 0 -7793 0 -7794 23 -3 c19 -3
22 -10 25 -55 3 -49 5 -53 28 -53 19 0 24 -5 24 -25 0 -20 5 -25 25 -25 18 0
25 -5 25 -20 0 -15 7 -20 25 -20 20 0 25 -5 25 -25 l0 -25 490 0 490 0 0 25 0
25 220 0 c208 0 220 1 220 19 0 24 40 31 188 31 103 0 112 2 112 19 0 24 40
31 183 31 98 0 107 2 107 19 0 22 40 31 138 31 54 0 62 2 62 19 0 17 11 20
100 26 86 7 100 10 100 25 0 15 14 19 95 25 84 6 95 9 95 26 0 15 7 19 38 19
73 0 112 11 112 31 0 15 8 19 38 19 72 0 112 11 112 31 0 16 10 19 73 21 66 3
72 5 75 25 3 21 8 23 73 23 67 0 69 1 69 25 0 24 2 25 75 25 73 0 75 1 75 25
0 23 3 25 50 25 47 0 50 2 50 25 0 24 2 25 69 25 65 0 70 2 73 23 3 19 10 22
50 25 39 3 47 6 50 25 3 19 10 22 50 25 39 3 47 6 50 25 3 19 10 22 51 25 38
3 47 7 47 22 0 14 10 20 50 25 39 5 50 11 50 25 0 14 11 20 50 25 39 5 50 11
50 25 0 14 11 20 50 25 39 5 50 11 50 25 0 13 11 19 45 24 34 6 45 12 45 25 0
14 11 20 50 25 40 5 50 10 50 25 0 15 10 21 50 26 40 6 50 11 50 26 0 14 7 19
25 19 20 0 25 5 25 25 0 23 3 25 50 25 47 0 50 2 50 25 0 23 4 25 45 25 41 0
45 2 45 25 0 21 5 25 30 25 23 0 30 5 30 19 0 16 9 21 45 27 39 5 45 10 45 30
0 20 5 24 30 24 23 0 30 5 30 19 0 16 9 21 45 27 34 5 45 11 45 24 0 13 9 20
28 22 19 2 28 9 30 25 3 18 12 23 48 29 34 5 44 10 44 25 0 14 7 19 25 19 20
0 25 5 25 25 0 20 5 25 25 25 20 0 25 5 25 25 0 23 4 25 45 25 41 0 45 2 45
25 0 21 5 25 30 25 25 0 30 4 30 25 0 20 5 25 25 25 18 0 25 5 25 19 0 16 9
21 45 27 39 5 45 10 45 30 0 19 5 24 25 24 20 0 25 5 25 25 0 20 5 25 25 25
18 0 25 5 25 20 0 15 7 20 25 20 20 0 25 5 25 24 0 20 6 25 44 30 36 6 45 11
48 29 2 14 11 23 25 25 14 2 23 11 25 25 2 14 11 23 26 25 14 2 22 10 22 22 0
13 8 20 28 22 19 2 28 9 30 26 3 16 10 22 28 22 19 0 24 5 24 24 0 18 6 25 23
28 14 2 23 11 25 25 3 17 10 23 28 23 19 0 24 5 24 25 0 20 5 25 25 25 18 0
25 5 25 19 0 13 8 21 23 23 14 2 23 11 25 25 3 18 12 23 48 29 38 5 44 10 44
30 0 17 6 24 19 24 13 0 21 8 23 23 2 16 11 23 31 25 21 3 27 9 27 28 0 17 5
24 20 24 16 0 21 9 26 50 5 40 10 50 25 50 17 0 19 8 19 70 0 63 -2 70 -20 70
-15 0 -20 7 -20 25 0 20 -5 25 -25 25 -20 0 -25 5 -25 25 0 20 -5 25 -25 25
-20 0 -25 5 -25 25 0 20 -5 25 -25 25 -20 0 -25 5 -25 25 0 18 -5 25 -19 25
-13 0 -21 8 -23 22 -2 17 -11 24 -30 26 -19 2 -28 9 -28 21 0 24 -36 31 -164
31 -138 0 -174 -7 -178 -34 -2 -13 -11 -22 -25 -24 -15 -2 -23 -10 -23 -23 0
-14 -7 -19 -25 -19 -20 0 -25 -5 -25 -25 0 -20 -5 -25 -25 -25 -20 0 -25 -5
-25 -25 0 -20 -5 -25 -25 -25 -20 0 -25 -5 -25 -25 0 -20 -5 -25 -25 -25 -18
0 -25 -5 -25 -19 0 -16 -9 -21 -45 -27 -39 -5 -45 -10 -45 -30 0 -19 -5 -24
-24 -24 -18 0 -25 -6 -28 -22 -2 -15 -11 -24 -25 -26 -14 -2 -23 -11 -25 -25
-2 -14 -11 -23 -25 -25 -14 -2 -23 -11 -25 -25 -2 -16 -11 -23 -31 -25 -19 -2
-27 -9 -27 -22 0 -15 -10 -20 -44 -25 -36 -6 -46 -12 -48 -29 -2 -13 -11 -22
-25 -24 -15 -2 -23 -10 -23 -23 0 -14 -7 -19 -25 -19 -20 0 -25 -5 -25 -25 0
-20 -5 -25 -25 -25 -20 0 -25 -5 -25 -25 0 -23 -4 -25 -45 -25 -41 0 -45 -2
-45 -25 0 -21 -5 -25 -30 -25 -25 0 -30 -4 -30 -25 0 -23 -4 -25 -45 -25 -41
0 -45 -2 -45 -25 0 -20 -5 -25 -25 -25 -20 0 -25 -5 -25 -25 0 -21 -5 -25 -30
-25 -23 0 -30 -5 -30 -19 0 -16 -9 -21 -45 -27 -39 -5 -45 -10 -45 -30 0 -19
-5 -24 -25 -24 -18 0 -25 -5 -25 -19 0 -15 -10 -20 -50 -26 -39 -5 -50 -11
-50 -25 0 -13 -11 -19 -45 -24 -35 -6 -45 -11 -45 -26 0 -13 -8 -20 -27 -22
-20 -2 -29 -9 -31 -24 -2 -17 -12 -23 -48 -29 -34 -5 -44 -10 -44 -25 0 -13
-8 -20 -27 -22 -20 -2 -29 -9 -31 -25 -3 -19 -11 -22 -50 -25 -40 -3 -47 -6
-50 -25 -3 -20 -9 -23 -48 -23 -40 0 -44 -2 -44 -25 0 -23 -3 -25 -50 -25 -47
0 -50 -2 -50 -25 0 -23 -3 -25 -50 -25 -47 0 -50 -2 -50 -25 0 -23 -4 -25 -44
-25 -39 0 -45 -3 -48 -22 -3 -20 -10 -23 -51 -26 -38 -3 -47 -7 -47 -22 0 -14
-10 -20 -50 -25 -39 -5 -50 -11 -50 -25 0 -14 -11 -20 -50 -25 -39 -5 -50 -11
-50 -25 0 -19 -41 -30 -112 -30 -31 0 -38 -4 -38 -19 0 -15 -10 -20 -50 -26
-40 -6 -50 -11 -50 -26 0 -15 -7 -19 -32 -19 -69 0 -108 -12 -108 -31 0 -15
-8 -19 -37 -19 -74 0 -113 -11 -113 -31 0 -15 -8 -19 -37 -19 -74 0 -113 -11
-113 -31 0 -15 -8 -19 -39 -19 -67 0 -101 -11 -101 -31 0 -17 -8 -19 -74 -19
-70 0 -75 -1 -78 -22 -3 -22 -8 -23 -100 -26 -97 -3 -98 -3 -98 -27 0 -25 0
-25 -100 -25 -91 0 -100 -2 -100 -19 0 -24 -35 -31 -151 -31 -80 0 -89 -2 -89
-19 0 -15 -11 -19 -77 -25 -42 -3 -98 -6 -125 -6 -40 0 -48 -3 -48 -19 0 -15
-11 -19 -77 -25 -42 -3 -129 -6 -195 -6 -108 0 -118 -2 -118 -19 0 -16 -12
-19 -126 -25 -69 -4 -180 -4 -245 0 -107 6 -119 9 -119 25 0 16 8 19 44 19 25
0 48 5 51 10 4 6 3 2375 -1 5265 -7 5102 -8 5255 -26 5255 -17 0 -18 66 -18
2185 0 2178 0 2185 20 2185 15 0 20 7 20 25 l0 25 1923 2 c1057 1 1942 2 1967
3 25 1 289 2 588 3 535 2 542 2 542 22 0 20 7 20 1105 20 1098 0 1105 0 1105
-20 0 -20 7 -20 295 -20 288 0 295 0 295 20 0 19 7 20 100 20 92 0 100 1 100
19 0 16 9 21 45 27 39 5 45 10 45 30 0 19 5 24 25 24 20 0 25 5 25 25 0 20 5
25 25 25 20 0 25 5 25 25 0 20 5 25 24 25 20 0 25 6 30 45 6 36 11 45 27 45
17 0 19 8 19 80 0 72 -2 80 -19 80 -17 0 -20 11 -26 89 -6 82 -9 90 -29 93
-15 2 -22 11 -24 31 -2 19 -9 27 -23 27 -14 0 -19 7 -19 25 0 20 -5 25 -24 25
-18 0 -25 6 -28 23 -2 14 -11 23 -25 25 -14 2 -23 10 -23 21 0 13 -10 20 -37
25 -21 3 -3781 6 -8355 6 l-8317 0 -3 23 c-2 16 -11 23 -30 25 -19 2 -28 9
-28 22 0 14 -11 20 -50 25 -39 5 -50 11 -50 25 0 13 -11 19 -45 24 -35 6 -45
11 -45 26 0 13 -8 20 -27 22 -20 2 -29 9 -31 26 -3 19 -9 22 -48 22 -40 0 -44
2 -44 25 0 23 -3 25 -50 25 -47 0 -50 2 -50 25 0 23 -3 25 -50 25 -47 0 -50 2
-50 25 0 23 -3 25 -50 25 -47 0 -50 2 -50 25 0 23 -3 25 -50 25 -47 0 -50 2
-50 25 0 23 -4 25 -45 25 -38 0 -45 3 -45 19 0 16 -10 21 -55 26 -43 6 -55 11
-55 25 0 19 -36 30 -101 30 -32 0 -39 4 -39 19 0 15 -10 20 -50 26 -39 5 -50
11 -50 25 0 14 -11 20 -50 25 -40 6 -50 11 -50 26 0 15 -7 19 -32 19 -69 0
-108 12 -108 31 0 16 -8 19 -50 19 -47 0 -50 2 -50 25 0 23 -4 25 -44 25 -72
0 -106 10 -106 31 0 16 -8 19 -50 19 -47 0 -50 2 -50 25 0 24 -2 25 -75 25
-73 0 -75 1 -75 25 0 24 -2 25 -70 25 -68 0 -70 1 -70 25 0 24 -2 25 -75 25
-73 0 -75 1 -75 25 0 23 -3 25 -50 25 -42 0 -50 3 -50 19 0 21 -40 31 -132 31
-51 0 -57 2 -60 23 -3 21 -8 22 -98 23 -52 1 -107 -1 -122 -3z m1242 -563 c0
-13 -7 -20 -20 -20 -13 0 -20 7 -20 20 0 13 7 20 20 20 13 0 20 -7 20 -20z
m250 -100 c0 -15 -7 -20 -25 -20 -18 0 -25 5 -25 20 0 15 7 20 25 20 18 0 25
-5 25 -20z m100 -50 c0 -13 -7 -20 -20 -20 -13 0 -20 7 -20 20 0 13 7 20 20
20 13 0 20 -7 20 -20z m100 -50 c0 -15 -7 -20 -25 -20 -18 0 -25 5 -25 20 0
15 7 20 25 20 18 0 25 -5 25 -20z m140 -50 c0 -17 -7 -20 -45 -20 -38 0 -45 3
-45 20 0 17 7 20 45 20 38 0 45 -3 45 -20z m100 -40 c0 -13 -7 -20 -20 -20
-13 0 -20 7 -20 20 0 13 7 20 20 20 13 0 20 -7 20 -20z m100 -50 c0 -15 -7
-20 -25 -20 -18 0 -25 5 -25 20 0 15 7 20 25 20 18 0 25 -5 25 -20z m100 -50
c0 -17 -7 -20 -45 -20 -38 0 -45 3 -45 20 0 17 7 20 45 20 38 0 45 -3 45 -20z
m100 -50 c0 -17 -7 -20 -45 -20 -38 0 -45 3 -45 20 0 17 7 20 45 20 38 0 45
-3 45 -20z m100 -50 c0 -17 -7 -20 -50 -20 -43 0 -50 3 -50 20 0 17 7 20 50
20 43 0 50 -3 50 -20z m90 -50 c0 -17 -7 -20 -45 -20 -38 0 -45 3 -45 20 0 17
7 20 45 20 38 0 45 -3 45 -20z m60 -50 c0 -16 -7 -20 -30 -20 -23 0 -30 4 -30
20 0 16 7 20 30 20 23 0 30 -4 30 -20z m90 -50 c0 -15 -7 -20 -25 -20 -18 0
-25 5 -25 20 0 15 7 20 25 20 18 0 25 -5 25 -20z m50 -50 c0 -13 -7 -20 -20
-20 -13 0 -20 7 -20 20 0 13 7 20 20 20 13 0 20 -7 20 -20z m100 -50 c0 -13
-7 -20 -20 -20 -13 0 -20 7 -20 20 0 13 7 20 20 20 13 0 20 -7 20 -20z m16760
-70 c0 -43 -3 -50 -20 -50 -15 0 -20 7 -20 25 0 20 -5 25 -25 25 -20 0 -25 5
-25 25 0 23 4 25 45 25 l45 0 0 -50z m50 -120 c0 -13 -7 -20 -20 -20 -13 0
-20 7 -20 20 0 13 7 20 20 20 13 0 20 -7 20 -20z m-15928 -397 c2 -20 9 -29
25 -31 14 -2 23 -11 25 -25 2 -14 11 -23 26 -25 14 -2 22 -10 22 -23 0 -14 7
-19 25 -19 20 0 25 -5 25 -25 0 -20 5 -25 25 -25 20 0 25 -5 25 -25 0 -20 5
-25 25 -25 20 0 25 -5 25 -25 0 -20 5 -25 25 -25 18 0 25 -5 25 -20 0 -15 7
-20 25 -20 20 0 25 -5 25 -25 0 -20 5 -25 25 -25 20 0 25 -5 25 -24 0 -20 6
-25 44 -30 36 -6 45 -11 48 -29 2 -14 11 -23 25 -25 14 -2 23 -11 25 -25 2
-14 11 -23 25 -25 14 -2 23 -11 25 -25 2 -14 11 -23 25 -25 14 -2 23 -11 25
-25 2 -14 11 -23 25 -25 14 -2 23 -11 25 -25 2 -14 11 -23 26 -25 14 -2 22
-10 22 -23 0 -14 7 -19 25 -19 20 0 25 -5 25 -25 0 -20 5 -25 25 -25 20 0 25
-5 25 -25 0 -20 5 -25 25 -25 23 0 25 -4 25 -45 0 -41 2 -45 25 -45 20 0 25
-5 25 -25 0 -20 5 -25 25 -25 20 0 25 -5 25 -24 0 -18 6 -25 23 -28 14 -2 23
-11 25 -25 2 -14 11 -23 25 -25 14 -2 23 -11 25 -25 2 -14 11 -23 25 -25 16
-2 23 -11 25 -30 2 -20 9 -28 22 -28 12 0 20 -8 22 -22 2 -15 11 -24 25 -26
18 -3 23 -12 29 -48 5 -38 10 -44 30 -44 19 0 24 -5 24 -25 0 -18 5 -25 20
-25 15 0 20 -7 20 -25 0 -20 5 -25 25 -25 20 0 25 -5 25 -25 0 -20 5 -25 25
-25 23 0 25 -4 25 -45 0 -41 2 -45 25 -45 21 0 25 -5 25 -30 0 -25 4 -30 25
-30 20 0 25 -5 25 -25 0 -20 5 -25 25 -25 23 0 25 -4 25 -45 0 -41 2 -45 25
-45 20 0 25 -5 25 -24 0 -18 6 -25 23 -28 19 -3 22 -10 25 -50 3 -43 5 -48 28
-48 19 0 24 -5 24 -25 0 -18 5 -25 19 -25 15 0 20 -10 25 -44 6 -36 11 -45 29
-48 16 -2 23 -11 25 -30 2 -19 9 -28 22 -28 13 0 19 -11 24 -45 6 -35 11 -45
26 -45 13 0 20 -8 22 -27 2 -20 9 -29 24 -31 17 -2 23 -12 29 -48 5 -34 10
-44 25 -44 13 0 20 -8 22 -27 2 -20 9 -29 26 -31 19 -3 22 -9 22 -48 0 -40 2
-44 25 -44 23 0 25 -3 25 -50 0 -47 2 -50 25 -50 23 0 25 -4 25 -45 0 -41 2
-45 25 -45 21 0 25 -5 25 -30 0 -25 4 -30 25 -30 23 0 25 -4 25 -45 0 -38 3
-45 19 -45 15 0 20 -10 26 -50 5 -39 11 -50 25 -50 14 0 20 -11 25 -50 5 -39
11 -50 25 -50 14 0 20 -11 25 -50 5 -39 11 -50 25 -50 14 0 20 -11 25 -50 6
-40 11 -50 26 -50 16 0 19 -7 19 -50 0 -47 2 -50 25 -50 23 0 25 -3 25 -50 0
-47 2 -50 25 -50 22 0 25 -4 25 -39 0 -67 11 -101 31 -101 14 0 19 -7 19 -25
0 -20 -5 -25 -25 -25 -20 0 -25 5 -25 25 0 18 -5 25 -19 25 -15 0 -20 10 -26
50 -5 39 -11 50 -25 50 -14 0 -20 11 -25 50 -5 40 -11 50 -25 50 -15 0 -19 9
-22 48 -3 40 -6 47 -25 50 -20 3 -23 9 -23 48 0 40 -2 44 -25 44 -23 0 -25 3
-25 50 0 47 -2 50 -25 50 -23 0 -25 3 -25 50 0 47 -2 50 -25 50 -23 0 -25 3
-25 50 0 46 -2 50 -24 50 -23 0 -25 5 -28 48 -3 40 -6 47 -25 50 -20 3 -23 9
-23 47 0 38 -3 44 -22 47 -17 2 -24 11 -26 31 -2 19 -9 27 -22 27 -15 0 -20
10 -26 45 -5 34 -11 45 -24 45 -14 0 -20 11 -25 50 -6 40 -11 50 -26 50 -14 0
-19 7 -19 25 0 20 -5 25 -24 25 -21 0 -25 6 -31 50 -5 39 -11 50 -25 50 -13 0
-19 11 -24 45 -6 35 -11 45 -26 45 -13 0 -20 8 -22 28 -2 19 -9 28 -24 30 -17
2 -23 12 -29 48 -5 35 -10 44 -26 44 -14 0 -19 7 -19 25 0 20 -5 25 -25 25
-21 0 -25 5 -25 30 0 25 -4 30 -25 30 -23 0 -25 4 -25 45 0 41 -2 45 -25 45
-20 0 -25 5 -25 25 0 18 -5 25 -19 25 -16 0 -21 9 -26 44 -6 36 -12 46 -29 48
-15 2 -22 11 -24 31 -3 21 -9 27 -28 27 -19 0 -24 5 -24 25 0 18 -5 25 -19 25
-16 0 -21 9 -26 44 -6 36 -12 46 -29 48 -13 2 -22 11 -24 26 -2 14 -10 22 -23
22 -14 0 -19 7 -19 25 0 20 -5 25 -24 25 -19 0 -25 6 -28 28 -2 19 -9 28 -25
30 -18 3 -23 12 -29 48 -5 34 -10 44 -25 44 -14 0 -19 7 -19 25 0 20 -5 25
-25 25 -20 0 -25 5 -25 25 0 20 -5 25 -25 25 -20 0 -25 5 -25 25 0 20 -5 25
-25 25 -20 0 -25 5 -25 25 0 18 -5 25 -19 25 -16 0 -21 9 -27 45 -5 39 -10 45
-30 45 -19 0 -24 5 -24 24 0 18 -6 25 -22 28 -15 2 -24 11 -26 25 -2 14 -11
23 -25 25 -14 2 -23 11 -25 25 -2 14 -11 23 -25 25 -14 2 -23 11 -25 25 -2 14
-11 23 -25 25 -14 2 -23 11 -25 26 -2 14 -10 22 -23 22 -14 0 -19 7 -19 25 0
20 -5 25 -25 25 -20 0 -25 5 -25 25 0 20 -5 25 -25 25 -20 0 -25 5 -25 25 0
20 -5 25 -25 25 -20 0 -25 5 -25 25 0 20 -5 25 -25 25 -20 0 -25 5 -25 25 0
20 -5 25 -25 25 -18 0 -25 5 -25 19 0 13 -8 21 -22 23 -15 2 -24 11 -26 25 -2
14 -11 23 -25 25 -14 2 -23 11 -25 25 -2 14 -11 23 -25 25 -14 2 -23 11 -25
25 -2 14 -11 23 -25 25 -14 2 -23 11 -25 24 -2 17 -12 23 -48 29 -35 5 -44 10
-44 26 0 14 -7 19 -25 19 -20 0 -25 5 -25 25 0 20 -5 25 -25 25 -20 0 -25 5
-25 25 0 20 -5 25 -25 25 -20 0 -25 5 -25 25 0 20 -5 25 -25 25 -20 0 -25 5
-25 25 0 23 4 25 44 25 41 0 45 -2 48 -27z m7626 -50 c3 -19 -1 -23 -22 -23
-21 0 -26 5 -26 26 0 21 4 25 23 22 14 -2 23 -11 25 -25z m-4918 -3664 c0 -47
-2 -50 -22 -47 -20 3 -23 10 -26 51 -3 45 -2 47 22 47 24 0 26 -3 26 -51z
m10570 -9314 c0 -23 -3 -25 -50 -25 -47 0 -50 2 -50 25 0 23 3 25 50 25 47 0
50 -2 50 -25z m50 -145 c0 -13 -7 -20 -20 -20 -13 0 -20 7 -20 20 0 13 7 20
20 20 13 0 20 -7 20 -20z m-5752 -2072 c3 -22 9 -28 28 -28 17 0 24 -5 24 -20
0 -17 -7 -20 -50 -20 l-50 0 0 51 c0 47 2 50 23 47 16 -2 23 -11 25 -30z m325
-78 c60 0 67 -2 67 -20 0 -19 -7 -20 -170 -20 -161 0 -170 1 -170 19 0 25 26
31 125 25 44 -2 110 -4 148 -4z"/>
</g>
</svg>
